{"glyphs":{":":{"x_min":0,"x_max":238,"ha":238,"o":"m 63 493 l 175 493 l 175 367 l 63 367 z m 63 126 l 175 126 l 175 0 l 63 0 z"},"$":{"x_min":0,"x_max":511,"ha":511,"o":"m 228 720 l 289 720 l 289 654 q 416 642 452 520 l 373 487 q 357 530 339 548 q 321 566 286 576 l 286 392 q 386 365 426 320 q 465 274 465 207 q 465 132 420 79 q 375 27 289 19 l 289 -66 l 228 -66 l 228 19 q 83 35 45 180 l 133 209 q 154 116 231 102 l 231 300 q 70 345 70 479 q 70 542 109 593 q 148 644 228 654 z m 230 574 q 164 557 164 491 q 164 429 230 409 z m 286 101 q 371 113 371 192 q 371 265 286 284 z"},"?":{"x_min":0,"x_max":494,"ha":494,"o":"m 133 453 l 38 472 q 57 679 240 679 q 329 679 380 629 q 431 579 431 495 q 431 453 414 411 q 396 369 331 316 q 287 279 277 259 q 268 238 268 204 l 268 178 l 176 178 l 176 198 q 176 270 188 298 q 199 327 243 365 q 287 402 304 429 q 320 456 320 497 q 320 543 297 567 q 274 591 234 591 q 141 591 133 453 z m 167 120 l 276 120 l 276 0 l 167 0 z"},"<":{"x_min":0,"x_max":511,"ha":511,"o":"m 462 596 l 462 484 l 149 333 l 461 181 l 462 69 l 29 285 l 29 381 z"},"'":{"x_min":0,"x_max":341,"ha":341,"o":"m 119 667 l 222 667 l 206 393 l 135 393 z"},"=":{"x_min":0,"x_max":511,"ha":511,"o":"m 459 361 l 51 361 l 51 442 l 459 442 z m 459 224 l 51 224 l 51 305 l 459 305 z"},"a":{"x_min":0,"x_max":460,"ha":460,"o":"m 151 354 l 53 366 q 63 432 114 468 q 165 505 239 505 q 306 505 345 478 q 385 452 396 415 q 406 378 406 304 l 406 136 q 406 34 415 0 l 318 0 q 312 27 312 82 q 266 -12 173 -12 q 111 -12 73 26 q 35 64 35 130 q 35 211 91 258 q 146 305 283 305 q 290 305 304 304 l 304 324 q 304 377 288 404 q 272 431 231 431 q 165 431 151 354 z m 304 240 q 285 242 274 242 q 142 242 142 138 q 142 62 208 62 q 246 62 275 104 q 304 145 304 216 z"},"L":{"x_min":0,"x_max":409,"ha":409,"o":"m 64 667 l 174 667 l 174 93 l 410 93 l 410 0 l 64 0 z"},"3":{"x_min":0,"x_max":511,"ha":511,"o":"m 130 495 l 38 517 q 83 679 243 679 q 334 679 386 631 q 438 583 438 500 q 438 394 334 351 q 457 317 457 187 q 457 94 396 41 q 336 -12 241 -12 q 155 -12 95 30 q 36 72 20 167 l 114 189 q 139 75 234 75 q 277 75 309 104 q 341 132 341 194 q 341 243 312 274 q 283 305 206 305 l 164 305 l 164 387 l 206 387 q 249 387 272 394 q 294 401 311 426 q 328 451 328 490 q 328 538 303 566 q 279 594 235 594 q 155 594 130 495 z"},";":{"x_min":0,"x_max":239,"ha":239,"o":"m 68 493 l 180 493 l 180 367 l 68 367 z m 68 126 l 180 126 l 180 6 l 107 -141 l 59 -141 l 120 0 l 68 0 z"},"J":{"x_min":0,"x_max":307,"ha":307,"o":"m 135 667 l 245 667 l 245 252 q 245 149 233 99 q 222 48 183 18 q 145 -12 72 -12 q 35 -12 -16 0 l -16 91 q 18 82 48 82 q 84 82 102 95 q 121 108 128 135 q 135 163 135 252 z"},"V":{"x_min":0,"x_max":460,"ha":460,"o":"m -4 667 l 112 667 l 239 135 l 366 667 l 463 667 l 288 -1 l 168 0 z"},"\"":{"x_min":0,"x_max":511,"ha":511,"o":"m 127 667 l 230 667 l 214 393 l 144 393 z m 281 667 l 383 667 l 368 393 l 296 393 z"},"7":{"x_min":0,"x_max":511,"ha":511,"o":"m 79 667 l 464 667 l 464 589 q 381 482 331 325 q 282 168 282 0 l 165 0 q 165 305 365 570 l 70 570 z"},"S":{"x_min":0,"x_max":511,"ha":511,"o":"m 461 518 l 367 485 q 350 538 323 563 q 296 588 249 588 q 206 588 182 562 q 158 537 158 503 q 158 467 185 445 q 211 423 291 393 q 359 367 396 344 q 432 320 455 281 q 478 242 478 190 q 478 106 418 47 q 359 -12 252 -12 q 67 -12 23 174 l 122 202 q 148 79 257 79 q 310 79 338 107 q 365 134 365 175 q 365 205 346 230 q 327 255 251 284 q 171 314 136 335 q 101 356 76 397 q 51 438 51 491 q 51 570 106 625 q 162 679 253 679 q 416 679 461 518 z"},"}":{"x_min":0,"x_max":255,"ha":255,"o":"m 12 -167 l 12 -109 q 51 -109 62 -93 q 72 -77 72 -11 l 72 106 q 72 192 83 217 q 93 241 133 256 q 94 270 83 294 q 72 318 72 405 l 72 511 q 72 576 62 592 q 51 607 12 608 l 12 667 q 39 667 41 667 q 109 667 138 633 q 167 599 167 511 l 167 403 q 167 344 169 328 q 171 311 184 301 q 196 291 220 291 l 220 221 q 196 221 184 211 q 172 201 169 184 q 167 167 167 108 l 167 -11 q 167 -106 135 -137 q 104 -168 43 -168 q 35 -168 12 -167 z"},"Z":{"x_min":0,"x_max":426,"ha":426,"o":"m 19 667 l 418 667 l 418 589 l 124 93 l 426 93 l 426 0 l 0 0 l 0 85 l 293 576 l 19 576 z"},"x":{"x_min":0,"x_max":358,"ha":358,"o":"m -1 493 l 111 493 l 184 350 l 259 493 l 354 493 l 229 270 l 375 0 l 261 0 l 172 174 l 79 0 l -17 0 l 126 256 z"},")":{"x_min":0,"x_max":255,"ha":255,"o":"m 75 -167 l -6 -167 q 108 22 108 250 q 108 478 -6 667 l 75 667 q 210 477 210 250 q 210 22 75 -167 z"},"&":{"x_min":0,"x_max":630,"ha":630,"o":"m 504 372 l 586 354 q 562 220 497 127 q 533 82 567 82 q 578 82 598 86 l 598 0 q 567 -9 545 -9 q 482 -9 430 57 q 354 -12 260 -12 q 163 -12 111 45 q 59 103 59 184 q 59 314 204 381 q 146 472 146 535 q 146 592 190 635 q 233 679 303 679 q 374 679 413 637 q 453 596 453 534 q 453 429 332 361 l 445 197 q 484 257 504 372 z m 288 421 q 365 466 365 535 q 365 565 349 585 q 332 604 305 604 q 279 604 261 586 q 243 568 243 537 q 243 490 288 421 z m 247 319 q 165 270 165 189 q 165 137 195 104 q 225 71 273 71 q 336 71 382 123 z"},"_":{"x_min":0,"x_max":500,"ha":500,"o":"m 0 -52 l 500 -52 l 500 -154 l 0 -154 z"},"v":{"x_min":0,"x_max":358,"ha":358,"o":"m -5 493 l 95 493 l 187 139 l 277 493 l 366 493 l 226 0 l 136 0 z"},"O":{"x_min":0,"x_max":562,"ha":562,"o":"m 521 333 q 521 163 460 75 q 399 -12 283 -12 q 166 -12 104 75 q 42 162 42 333 q 42 503 104 591 q 165 679 282 679 q 398 679 459 592 q 521 504 521 333 z m 405 333 q 405 452 378 520 q 350 588 281 588 q 212 588 185 520 q 158 452 158 333 q 158 217 185 148 q 211 79 283 79 q 350 79 377 146 q 405 213 405 333 z"},"(":{"x_min":0,"x_max":255,"ha":255,"o":"m 180 667 l 261 667 q 147 478 147 250 q 147 21 261 -167 l 180 -167 q 45 27 45 250 q 45 478 180 667 z"},"C":{"x_min":0,"x_max":528,"ha":528,"o":"m 399 224 l 500 210 q 469 -12 282 -12 q 161 -12 101 81 q 42 174 42 331 q 42 499 104 589 q 167 679 286 679 q 470 679 501 451 l 399 436 q 382 587 287 587 q 159 587 159 324 q 159 79 287 79 q 338 79 363 116 q 388 154 399 224 z"},"W":{"x_min":0,"x_max":698,"ha":698,"o":"m 2 667 l 114 667 l 205 167 l 309 667 l 405 667 l 508 167 l 603 667 l 696 667 l 556 -1 l 457 -1 l 351 488 l 248 -1 l 146 -1 z"},"A":{"x_min":0,"x_max":494,"ha":494,"o":"m 189 667 l 312 667 l 491 0 l 379 0 l 337 167 l 143 167 l 102 0 l -4 0 z m 315 254 l 240 559 l 165 254 z"},"f":{"x_min":0,"x_max":255,"ha":255,"o":"m 174 493 l 262 493 l 262 411 l 174 411 l 174 0 l 74 0 l 74 411 l 10 411 l 10 493 l 74 493 q 76 581 89 615 q 103 648 134 667 q 165 686 218 686 q 249 686 278 680 l 278 599 q 257 603 240 603 q 209 603 195 591 q 181 580 177 563 q 174 545 174 493 z"},"Q":{"x_min":0,"x_max":562,"ha":562,"o":"m 484 -58 l 484 -142 q 453 -154 419 -154 q 283 -154 282 -11 q 170 -11 106 72 q 42 155 42 333 q 42 503 103 591 q 165 679 282 679 q 398 679 459 591 q 521 503 521 333 q 521 65 368 5 q 368 -32 381 -49 q 393 -67 434 -67 q 458 -67 484 -58 z m 404 333 q 404 419 390 478 q 376 537 350 562 q 323 588 281 588 q 213 588 185 521 q 158 455 158 333 q 158 212 185 146 q 213 79 281 79 q 350 79 377 146 q 404 214 404 333 z"},"w":{"x_min":0,"x_max":562,"ha":562,"o":"m -1 493 l 99 493 l 172 154 l 243 493 l 333 493 l 403 152 l 481 493 l 563 493 l 441 0 l 355 0 l 280 342 l 209 0 l 123 0 z"},"-":{"x_min":0,"x_max":290,"ha":290,"o":"m 39 291 l 250 291 l 250 209 l 39 209 z"},"E":{"x_min":0,"x_max":460,"ha":460,"o":"m 64 667 l 446 667 l 446 578 l 174 578 l 174 388 l 387 388 l 387 299 l 174 299 l 174 90 l 450 90 l 450 0 l 64 0 z"},"s":{"x_min":0,"x_max":392,"ha":392,"o":"m 357 378 l 277 356 q 255 431 194 431 q 166 431 148 413 q 131 396 131 370 q 131 340 148 327 q 166 313 229 292 q 307 267 341 234 q 375 202 375 144 q 375 78 326 33 q 277 -12 194 -12 q 38 -12 17 131 l 103 147 q 120 62 197 62 q 237 62 256 82 q 275 102 275 128 q 275 147 262 165 q 249 184 188 203 q 130 222 101 238 q 71 254 52 284 q 33 315 33 354 q 33 417 79 461 q 125 505 198 505 q 321 505 357 378 z"},">":{"x_min":0,"x_max":511,"ha":511,"o":"m 49 69 l 49 182 l 362 333 l 49 485 l 49 596 l 482 380 l 482 285 z"},"l":{"x_min":0,"x_max":222,"ha":222,"o":"m 60 667 l 162 667 l 162 0 l 60 0 z"},"8":{"x_min":0,"x_max":511,"ha":511,"o":"m 353 360 q 478 300 478 183 q 478 100 417 44 q 357 -12 250 -12 q 145 -12 89 38 q 34 88 34 169 q 34 282 158 339 q 57 397 57 496 q 57 574 110 626 q 164 679 261 679 q 355 679 406 631 q 457 583 457 509 q 457 411 353 360 z m 270 396 q 361 441 361 507 q 361 548 334 575 q 307 602 261 602 q 218 602 190 577 q 163 552 163 512 q 163 436 270 396 z m 236 298 q 133 254 133 176 q 133 125 167 96 q 202 67 255 67 q 304 67 338 94 q 371 121 371 167 q 371 206 344 236 q 316 266 236 298 z"},"\\":{"x_min":0,"x_max":477,"ha":477,"o":"m 124 667 l 492 -167 l 416 -167 l 48 667 z"},"e":{"x_min":0,"x_max":443,"ha":443,"o":"m 418 231 l 140 231 q 140 131 167 98 q 194 64 235 64 q 303 64 321 157 l 414 145 q 377 -12 231 -12 q 142 -12 89 52 q 36 116 36 239 q 36 366 89 436 q 143 505 233 505 q 296 505 339 470 q 382 436 399 379 q 417 323 418 231 z m 314 300 q 314 431 229 431 q 150 431 142 300 z"},"b":{"x_min":0,"x_max":477,"ha":477,"o":"m 60 667 l 161 667 l 161 437 q 204 502 275 502 q 353 502 397 436 q 442 371 442 259 q 442 -10 259 -10 q 173 -10 140 67 q 128 39 117 0 l 60 0 z m 161 208 q 161 66 248 66 q 292 66 313 109 q 333 152 333 253 q 333 351 313 389 q 292 427 250 427 q 212 427 186 393 q 161 359 161 301 z"},"%":{"x_min":0,"x_max":681,"ha":681,"o":"m 305 500 q 305 417 269 373 q 233 328 174 328 q 115 328 79 372 q 42 417 42 500 q 42 583 78 627 q 114 672 174 672 q 232 672 269 628 q 305 584 305 500 z m 227 500 q 227 611 174 611 q 120 611 120 500 q 120 389 173 389 q 227 389 227 500 z m 471 667 l 537 667 l 212 0 l 146 0 z m 639 167 q 639 84 603 39 q 567 -6 507 -6 q 448 -6 412 39 q 376 84 376 167 q 376 250 413 294 q 449 339 507 339 q 566 339 603 294 q 639 249 639 167 z m 561 167 q 561 278 507 278 q 454 278 454 164 q 454 56 507 56 q 561 56 561 167 z"},"m":{"x_min":0,"x_max":698,"ha":698,"o":"m 60 493 l 154 493 l 154 418 q 190 505 275 505 q 369 505 388 413 q 423 505 513 505 q 558 505 588 485 q 618 466 630 434 q 642 401 642 312 l 642 0 l 540 0 l 540 304 q 540 374 528 398 q 516 423 479 423 q 402 423 402 289 l 402 0 l 300 0 l 300 300 q 300 364 295 383 q 290 402 276 413 q 262 423 240 423 q 198 423 180 391 q 162 359 162 287 l 162 0 l 60 0 z"},"#":{"x_min":0,"x_max":511,"ha":511,"o":"m 183 667 l 254 667 l 222 473 l 333 473 l 365 667 l 437 667 l 405 473 l 501 473 l 490 405 l 394 405 l 372 276 l 468 276 l 457 208 l 360 208 l 326 0 l 253 0 l 289 208 l 178 208 l 143 0 l 71 0 l 106 208 l 9 208 l 21 276 l 117 276 l 139 405 l 42 405 l 53 473 l 150 473 z m 211 405 l 189 276 l 300 276 l 322 405 z"},",":{"x_min":0,"x_max":239,"ha":239,"o":"m 68 126 l 180 126 l 180 6 l 107 -141 l 59 -141 l 120 0 l 68 0 z"},"n":{"x_min":0,"x_max":460,"ha":460,"o":"m 60 493 l 154 493 l 154 417 q 188 505 276 505 q 326 505 357 481 q 387 457 395 424 q 403 390 403 318 l 403 0 l 302 0 l 302 312 q 302 377 291 400 q 279 423 243 423 q 205 423 183 394 q 162 364 162 276 l 162 0 l 60 0 z"},"h":{"x_min":0,"x_max":460,"ha":460,"o":"m 60 667 l 162 667 l 162 428 q 196 505 279 505 q 322 505 351 485 q 380 466 391 433 q 403 401 403 311 l 403 0 l 301 0 l 301 311 q 301 388 284 406 q 266 423 240 423 q 162 423 162 282 l 162 0 l 60 0 z"},"z":{"x_min":0,"x_max":341,"ha":341,"o":"m 32 493 l 332 493 l 332 431 l 125 77 l 334 77 l 334 0 l 15 0 l 15 77 l 215 416 l 32 416 z"},"B":{"x_min":0,"x_max":545,"ha":545,"o":"m 64 667 l 266 667 q 342 667 381 654 q 421 642 448 600 q 476 558 476 497 q 476 386 376 351 q 496 313 496 184 q 496 110 449 55 q 402 0 269 0 l 64 0 z m 172 390 l 242 390 q 315 390 339 417 q 362 444 362 487 q 362 538 335 559 q 309 581 252 581 l 172 581 z m 172 88 l 261 88 q 383 88 383 196 q 383 238 357 271 q 331 305 251 305 l 172 305 z"},"K":{"x_min":0,"x_max":511,"ha":511,"o":"m 64 667 l 174 667 l 174 349 l 375 667 l 492 667 l 320 422 l 521 0 l 402 0 l 253 331 l 174 219 l 174 0 l 64 0 z"},"R":{"x_min":0,"x_max":528,"ha":528,"o":"m 64 667 l 265 667 q 374 667 425 617 q 477 568 477 476 q 477 353 375 301 l 501 0 l 382 0 l 278 278 l 174 278 l 174 0 l 64 0 z m 174 581 l 174 364 l 259 364 q 315 364 342 395 q 369 426 369 477 q 369 581 260 581 z"},"T":{"x_min":0,"x_max":375,"ha":375,"o":"m -16 667 l 391 667 l 391 573 l 242 573 l 242 0 l 132 0 l 132 573 l -16 573 z"},"P":{"x_min":0,"x_max":494,"ha":494,"o":"m 64 667 l 229 667 q 308 667 357 652 q 407 637 440 586 q 474 535 474 463 q 474 397 447 350 q 419 302 373 281 q 327 260 231 260 l 174 260 l 174 0 l 64 0 z m 174 581 l 174 349 l 229 349 q 302 349 330 376 q 358 403 358 465 q 358 511 340 539 q 321 568 299 574 q 277 581 229 581 z"},"|":{"x_min":0,"x_max":500,"ha":500,"o":"m 193 667 l 307 667 l 307 -167 l 193 -167 z"},"t":{"x_min":0,"x_max":272,"ha":272,"o":"m 78 622 l 170 630 l 170 493 l 264 493 l 264 411 l 170 411 l 170 193 q 170 136 173 117 q 176 98 190 86 q 205 74 239 74 q 257 74 280 78 l 280 -3 q 239 -12 204 -12 q 147 -12 117 10 q 86 32 78 70 q 70 108 70 187 l 70 411 l 6 411 l 6 493 l 73 493 z"},"M":{"x_min":0,"x_max":715,"ha":715,"o":"m 62 667 l 225 667 l 358 186 l 494 667 l 651 667 l 651 0 l 547 0 l 547 569 l 389 0 l 309 0 l 154 569 l 154 0 l 62 0 z"},"g":{"x_min":0,"x_max":443,"ha":443,"o":"m 443 572 l 443 497 q 429 500 420 500 q 375 500 367 446 q 404 399 404 340 q 404 273 357 227 q 311 181 232 181 q 203 181 170 190 q 133 176 133 147 q 133 122 153 115 q 172 107 257 103 q 331 99 368 89 q 405 80 427 50 q 449 20 449 -29 q 449 -104 391 -143 q 333 -182 226 -182 q 122 -182 74 -148 q 27 -114 27 -58 q 27 13 99 37 q 45 67 45 118 q 45 182 118 217 q 54 259 54 343 q 54 416 103 460 q 151 505 227 505 q 277 505 320 483 q 328 535 350 554 q 372 574 413 574 q 425 574 443 572 z m 299 341 q 299 438 232 438 q 159 438 159 340 q 159 246 229 246 q 299 246 299 341 z m 162 21 q 119 0 119 -42 q 119 -78 146 -94 q 174 -111 237 -111 q 354 -111 354 -43 q 354 -10 332 3 q 310 15 245 17 q 189 19 162 21 z"},"j":{"x_min":0,"x_max":222,"ha":222,"o":"m 167 560 l 60 560 l 60 667 l 167 667 z m 62 493 l 164 493 l 164 18 q 164 -58 156 -94 q 149 -130 119 -154 q 90 -177 37 -177 q 9 -177 -25 -170 l -25 -85 q -6 -90 11 -90 q 45 -90 53 -71 q 62 -52 62 19 z"},"i":{"x_min":0,"x_max":222,"ha":222,"o":"m 164 560 l 58 560 l 58 667 l 164 667 z m 60 493 l 162 493 l 162 0 l 60 0 z"},"y":{"x_min":0,"x_max":358,"ha":358,"o":"m 0 493 l 102 493 l 188 154 l 276 493 l 368 493 l 208 -31 q 190 -88 175 -116 q 161 -143 134 -160 q 107 -177 64 -177 q 39 -177 12 -170 l 12 -89 q 32 -92 48 -92 q 87 -92 104 -73 q 121 -54 140 17 z"},"@":{"x_min":0,"x_max":596,"ha":596,"o":"m 389 507 l 447 507 l 418 300 q 412 254 412 234 q 412 201 437 201 q 472 201 497 250 q 522 298 522 376 q 522 496 466 561 q 409 625 315 625 q 210 625 145 541 q 80 457 80 329 q 80 202 146 123 q 213 43 328 43 q 422 43 506 95 l 528 42 q 427 -16 324 -16 q 183 -16 95 76 q 7 167 7 326 q 7 484 93 584 q 178 684 317 684 q 440 684 515 604 q 589 524 589 384 q 589 274 542 205 q 495 136 427 136 q 368 136 355 193 q 326 134 268 134 q 220 134 190 177 q 160 221 160 295 q 160 389 200 452 q 241 514 302 514 q 358 514 381 453 z m 352 356 q 352 441 306 441 q 276 441 256 400 q 237 360 237 297 q 237 255 250 231 q 262 207 283 207 q 316 207 334 252 q 352 297 352 356 z"},".":{"x_min":0,"x_max":239,"ha":239,"o":"m 63 126 l 175 126 l 175 0 l 63 0 z"},"p":{"x_min":0,"x_max":477,"ha":477,"o":"m 60 493 l 153 493 l 153 412 q 192 501 275 501 q 350 501 396 436 q 442 371 442 250 q 442 143 400 67 q 358 -9 271 -9 q 200 -9 161 51 l 161 -167 l 60 -167 z m 161 206 q 161 159 168 132 q 175 105 197 87 q 219 68 247 68 q 333 68 333 250 q 333 427 249 427 q 211 427 186 391 q 161 355 161 288 z"},"X":{"x_min":0,"x_max":443,"ha":443,"o":"m 8 667 l 130 667 l 226 454 l 333 667 l 436 667 l 281 364 l 457 0 l 333 0 l 219 255 l 91 0 l -14 0 l 165 345 z"},"*":{"x_min":0,"x_max":511,"ha":511,"o":"m 219 667 l 292 667 l 281 535 l 391 608 l 425 541 l 310 489 l 425 438 l 391 372 l 281 444 l 292 312 l 219 312 l 229 444 l 121 372 l 86 438 l 201 489 l 86 541 l 121 608 l 229 535 z"},"Y":{"x_min":0,"x_max":409,"ha":409,"o":"m -32 667 l 88 667 l 210 389 l 335 667 l 440 667 l 255 282 l 255 0 l 146 0 l 146 282 z"},"c":{"x_min":0,"x_max":409,"ha":409,"o":"m 402 327 l 304 316 q 296 381 279 403 q 261 424 229 424 q 184 424 163 383 q 143 341 143 236 q 143 72 229 72 q 295 72 304 179 l 402 170 q 382 -12 222 -12 q 127 -12 81 56 q 36 125 36 245 q 36 372 85 438 q 134 505 229 505 q 380 505 402 327 z"},"!":{"x_min":0,"x_max":341,"ha":341,"o":"m 103 667 l 238 667 l 204 180 l 137 180 z m 115 123 l 226 123 l 226 0 l 115 0 z"},"/":{"x_min":0,"x_max":477,"ha":477,"o":"m 353 667 l 429 667 l 61 -167 l -15 -167 z"},"[":{"x_min":0,"x_max":255,"ha":255,"o":"m 72 667 l 245 667 l 245 610 l 167 610 l 167 -111 l 245 -111 l 245 -167 l 72 -167 z"},"6":{"x_min":0,"x_max":511,"ha":511,"o":"m 474 517 l 382 488 q 359 593 281 593 q 218 593 188 529 q 158 464 155 331 q 199 430 297 430 q 374 430 427 371 q 480 312 480 212 q 480 111 424 49 q 367 -12 274 -12 q 176 -12 115 68 q 54 148 54 318 q 54 493 115 586 q 177 679 282 679 q 352 679 403 640 q 454 602 474 517 z m 373 210 q 373 277 346 311 q 320 344 276 344 q 223 344 195 305 q 167 267 167 209 q 167 150 196 112 q 225 73 274 73 q 373 73 373 210 z"},"r":{"x_min":0,"x_max":272,"ha":272,"o":"m 60 493 l 150 493 l 150 383 q 191 503 273 503 q 281 503 292 502 l 292 396 q 279 397 271 397 q 162 397 162 251 l 162 0 l 60 0 z"},"2":{"x_min":0,"x_max":511,"ha":511,"o":"m 132 453 l 33 474 q 50 574 106 626 q 161 679 247 679 q 341 679 394 624 q 447 568 447 482 q 447 383 371 293 q 294 203 150 97 l 451 97 l 446 0 l 33 0 l 33 96 q 227 263 280 339 q 333 415 333 476 q 333 525 308 556 q 283 587 240 587 q 149 587 132 453 z"},"{":{"x_min":0,"x_max":255,"ha":255,"o":"m 243 667 l 243 608 q 205 608 194 592 q 183 576 183 511 l 183 405 q 183 318 172 294 q 162 270 122 256 q 161 242 172 217 q 183 193 183 106 l 183 -11 q 183 -76 194 -93 q 204 -109 243 -109 l 243 -167 q 217 -168 214 -168 q 147 -168 118 -135 q 89 -102 89 -11 l 89 108 q 89 183 80 202 q 71 221 36 221 l 36 291 q 71 291 80 309 q 89 328 89 403 l 89 511 q 89 606 120 637 q 151 667 212 667 q 221 667 243 667 z"},"9":{"x_min":0,"x_max":511,"ha":511,"o":"m 43 134 l 139 162 q 160 73 233 73 q 295 73 322 138 q 349 203 352 324 q 307 236 215 236 q 139 236 85 296 q 32 356 32 455 q 32 554 89 616 q 146 679 240 679 q 456 679 456 364 q 456 -12 228 -12 q 157 -12 113 21 q 69 54 43 134 z m 342 460 q 342 519 315 556 q 288 593 241 593 q 196 593 167 558 q 139 523 139 458 q 139 398 166 363 q 192 328 240 328 q 289 328 315 366 q 342 405 342 460 z"}," ":{"x_min":0,"x_max":187,"ha":187,"o":""},"I":{"x_min":0,"x_max":238,"ha":238,"o":"m 64 667 l 174 667 l 174 0 l 64 0 z"},"H":{"x_min":0,"x_max":545,"ha":545,"o":"m 64 667 l 174 667 l 174 390 l 371 390 l 371 667 l 481 667 l 481 0 l 371 0 l 371 297 l 174 297 l 174 0 l 64 0 z"},"4":{"x_min":0,"x_max":511,"ha":511,"o":"m 271 679 l 397 679 l 397 244 l 481 244 l 481 159 l 397 159 l 397 0 l 290 0 l 290 159 l 30 159 l 30 240 z m 295 240 l 295 581 l 118 240 z"},"~":{"x_min":0,"x_max":667,"ha":667,"o":"m 148 238 l 91 275 q 126 355 161 379 q 195 402 236 402 q 271 402 343 373 q 410 345 435 345 q 483 345 516 404 l 575 370 q 521 247 422 247 q 392 247 305 282 q 250 305 228 305 q 182 305 148 238 z"},"D":{"x_min":0,"x_max":562,"ha":562,"o":"m 64 667 l 214 667 q 323 667 388 628 q 454 589 487 513 q 521 437 521 344 q 521 247 490 170 q 460 94 399 47 q 337 0 223 0 l 64 0 z m 175 578 l 175 88 l 221 88 q 317 88 360 155 q 404 222 404 333 q 404 578 221 578 z"},"^":{"x_min":0,"x_max":500,"ha":500,"o":"m 130 343 l 11 343 l 176 670 l 325 670 l 490 343 l 371 343 l 250 580 z"},"0":{"x_min":0,"x_max":511,"ha":511,"o":"m 473 341 q 473 155 417 71 q 362 -12 255 -12 q 38 -12 38 325 q 38 512 94 595 q 149 679 255 679 q 473 679 473 341 z m 359 333 q 359 480 333 539 q 307 597 255 597 q 205 597 178 539 q 152 481 152 333 q 152 174 181 122 q 209 70 255 70 q 308 70 333 129 q 359 188 359 333 z"},"F":{"x_min":0,"x_max":426,"ha":426,"o":"m 64 667 l 434 667 l 434 578 l 174 578 l 174 379 l 382 379 l 382 291 l 174 291 l 174 0 l 64 0 z"},"`":{"x_min":0,"x_max":500,"ha":500,"o":"m 325 590 l 288 552 l 116 661 l 168 727 z"},"k":{"x_min":0,"x_max":426,"ha":426,"o":"m 60 667 l 162 667 l 162 272 l 321 493 l 421 493 l 294 323 l 436 0 l 326 0 l 227 247 l 162 157 l 162 0 l 60 0 z"},"u":{"x_min":0,"x_max":460,"ha":460,"o":"m 57 493 l 159 493 l 159 180 q 159 114 169 92 q 180 70 217 70 q 262 70 280 109 q 298 149 298 256 l 298 493 l 400 493 l 400 0 l 307 0 l 307 74 q 267 -12 181 -12 q 137 -12 109 6 q 81 25 69 59 q 57 93 57 178 z"},"]":{"x_min":0,"x_max":255,"ha":255,"o":"m 184 -167 l 11 -167 l 11 -111 l 89 -111 l 89 610 l 11 610 l 11 667 l 184 667 z"},"U":{"x_min":0,"x_max":545,"ha":545,"o":"m 59 667 l 167 667 l 167 253 q 167 184 174 151 q 182 118 208 98 q 234 79 278 79 q 320 79 344 95 q 367 111 377 140 q 387 169 387 255 l 387 667 l 486 667 l 486 260 q 486 163 472 110 q 458 57 407 22 q 357 -12 272 -12 q 206 -12 157 10 q 109 31 84 80 q 59 128 59 253 z"},"o":{"x_min":0,"x_max":460,"ha":460,"o":"m 424 251 q 424 -12 229 -12 q 139 -12 87 52 q 36 115 36 247 q 36 505 231 505 q 320 505 372 442 q 424 379 424 251 z m 316 247 q 316 351 293 389 q 270 428 230 428 q 144 428 144 247 q 144 154 164 109 q 184 65 230 65 q 275 65 296 110 q 316 155 316 247 z"},"N":{"x_min":0,"x_max":562,"ha":562,"o":"m 61 667 l 190 667 l 410 186 l 410 667 l 502 667 l 502 0 l 399 0 l 153 534 l 153 0 l 61 0 z"},"+":{"x_min":0,"x_max":511,"ha":511,"o":"m 298 374 l 459 374 l 459 292 l 298 292 l 298 129 l 213 129 l 213 292 l 51 292 l 51 374 l 213 374 l 213 538 l 298 538 z"},"G":{"x_min":0,"x_max":562,"ha":562,"o":"m 291 342 l 513 342 l 513 -5 l 455 -5 l 440 80 q 389 -12 279 -12 q 167 -12 104 78 q 42 169 42 324 q 42 488 104 583 q 166 679 295 679 q 475 679 510 476 l 410 451 q 393 537 363 562 q 333 587 292 587 q 158 587 158 334 q 158 79 296 79 q 410 79 410 253 l 291 253 z"},"q":{"x_min":0,"x_max":477,"ha":477,"o":"m 362 497 l 417 497 q 416 456 416 382 l 416 -167 l 313 -167 l 313 63 q 273 -9 198 -9 q 129 -9 82 53 q 35 115 35 238 q 35 372 84 437 q 133 502 209 502 q 291 502 330 420 q 347 450 362 497 z m 313 290 q 313 355 288 391 q 263 427 228 427 q 185 427 164 386 q 143 345 143 249 q 143 68 227 68 q 261 68 287 107 q 313 146 313 226 z"},"d":{"x_min":0,"x_max":477,"ha":477,"o":"m 317 667 l 418 667 l 418 0 l 325 0 l 325 75 q 289 -9 202 -9 q 119 -9 77 61 q 35 131 35 244 q 35 366 81 434 q 127 501 204 501 q 285 501 317 436 z m 317 290 q 317 366 288 397 q 259 427 229 427 q 144 427 144 253 q 144 68 229 68 q 263 68 290 99 q 317 129 317 206 z"},"1":{"x_min":0,"x_max":511,"ha":511,"o":"m 259 674 l 340 674 l 340 82 l 448 82 l 448 0 l 116 0 l 116 82 l 232 82 l 232 539 q 187 484 113 444 l 113 547 q 199 594 259 674 z"},"5":{"x_min":0,"x_max":511,"ha":511,"o":"m 89 667 l 436 667 l 425 570 l 172 570 l 162 385 q 208 447 285 447 q 369 447 419 388 q 469 330 469 225 q 469 112 409 50 q 349 -12 250 -12 q 171 -12 114 31 q 57 75 42 160 l 140 184 q 163 79 252 79 q 362 79 362 221 q 362 285 335 320 q 308 356 255 356 q 182 356 151 283 l 68 300 z"}}}
